<?xml version="1.0" encoding="utf-8" ?>
<svg xmlns="http://www.w3.org/2000/svg" xmlns:xlink="http://www.w3.org/1999/xlink" width="1223" height="1212">
	<path fill="#CB9145" transform="scale(0.90998 0.90998)" d="M926.878 373.448L927.922 373.077C936.369 382.048 942.589 394.859 949.182 405.32C957.575 418.636 976.314 450.575 986.215 461.762L985.75 462.501C979.27 461.892 972.454 462.409 965.935 462.43L926.878 462.501C926.857 432.837 927.384 403.104 926.878 373.448Z"/>
	<path fill="#EABD73" transform="scale(0.90998 0.90998)" d="M869.546 462.501C869.058 458.755 922.273 379.568 926.878 373.448C927.384 403.104 926.857 432.837 926.878 462.501L891.239 462.431C884.768 462.366 875.62 461.033 869.546 462.501Z"/>
	<path fill="#EABD73" transform="scale(0.90998 0.90998)" d="M420.236 376.678C417.083 382.198 418.626 453.158 418.639 462.501L381.66 462.445C375.622 462.416 368.978 461.831 363.003 462.501L362.672 462.123C362.612 457.598 369.82 450.372 372.312 446.541L397.38 407.462C400.263 402.947 416.116 375.085 419.084 375.038L420.236 376.678Z"/>
	<path fill="#CB9145" transform="scale(0.90998 0.90998)" d="M418.639 462.501C418.626 453.158 417.083 382.198 420.236 376.678C433.705 393.971 465.806 441.94 475.806 462.501L438.37 462.436C431.828 462.412 425.163 462.004 418.639 462.501Z"/>
	<path fill="#0B232A" transform="scale(0.90998 0.90998)" d="M418.639 462.501C425.163 462.004 431.828 462.412 438.37 462.436L475.806 462.501C463.251 478.688 435.739 504.153 420.236 518.277C416.557 513.547 418.528 503.7 418.541 498.05L418.639 462.501Z"/>
	<path fill="#0B232A" transform="scale(0.90998 0.90998)" d="M926.878 462.501L965.935 462.43C972.454 462.409 979.27 461.892 985.75 462.501C972.939 479.383 945.251 499.8 929.079 518.277C924.832 513.538 926.853 470.65 926.878 462.501Z"/>
	<path fill="#27454D" transform="scale(0.90998 0.90998)" d="M363.003 462.501C368.978 461.831 375.622 462.416 381.66 462.445L418.639 462.501L418.541 498.05C418.528 503.7 416.557 513.547 420.236 518.277C415.495 524.41 373.765 476.769 363.003 462.501Z"/>
	<path fill="#27454D" transform="scale(0.90998 0.90998)" d="M869.546 462.501C875.62 461.033 884.768 462.366 891.239 462.431L926.878 462.501C926.853 470.65 924.832 513.538 929.079 518.277C923.17 520.562 876.217 470.552 869.546 462.501Z"/>
	<path fill="#EABD73" transform="scale(0.90998 0.90998)" d="M430.674 544.507C430.258 543.879 430.215 544.056 430.437 543.198C431.665 538.46 479.911 490.332 487.61 480.693C495.059 489.639 500.714 500.894 506.685 510.92L667.038 777.654C649.77 772.328 448.074 547.57 430.674 544.507Z"/>
	<path fill="#CB9145" transform="scale(0.90998 0.90998)" d="M910.985 544.507C898.771 546.166 724.995 737.284 686.44 774.569C683.476 777.435 679.848 780.004 677.062 782.956C678.866 770.849 732.118 689.889 741.252 675.199L830.511 529.139C839.407 514.521 847.755 499.37 857.359 485.215C864.844 491.661 910.806 540.29 911.251 543.767L910.921 543.739L910.985 544.507Z"/>
	<path fill="#CB9145" transform="scale(0.90998 0.90998)" d="M415.591 962.393C409.279 962.416 391.412 963.784 386.52 961.137C387.155 929.782 391.023 898.16 393.129 866.836L414.358 576.093C415.121 564.597 416.007 537.156 418.639 527.463C421.138 530.298 422.493 573.258 423 580.575L444.004 917.42C444.91 932.241 446.642 947.573 445.511 962.393L415.591 962.393Z"/>
	<path fill="#7B4D27" transform="scale(0.90998 0.90998)" d="M677.062 782.956C679.848 780.004 683.476 777.435 686.44 774.569C724.995 737.284 898.771 546.166 910.985 544.507C908.432 557.043 879.164 608.367 872.259 621.575L773.612 808.982C765.453 824.198 757.619 843.076 747.898 857.04C740.724 847.491 731.922 839.12 723.546 830.63L693.396 799.975C687.923 794.437 681.921 789.023 677.062 782.956Z"/>
	<path fill="#CB9145" transform="scale(0.90998 0.90998)" d="M898.449 962.393C897.895 952.17 899.138 941.747 899.726 931.53L919.298 592.79C920.188 576.614 921.924 560.75 921.532 544.507L922.282 545.185C927.664 568.636 927.772 602.379 929.599 627.283L950.716 901.901C952.044 920.503 955.259 944.127 954.398 962.393C946.237 962.112 938.177 962.086 930.017 962.393C919.496 962.438 908.968 962.561 898.449 962.393Z"/>
	<path fill="#CB9145" transform="scale(0.90998 0.90998)" d="M430.674 544.507C448.074 547.57 649.77 772.328 667.038 777.654L670.082 782.956C646.889 803.479 623.079 830.926 600.659 853.18L600.378 852.629C600.026 853.949 600.38 853.455 599.454 854.201L598.179 853.911C594.767 850.348 592.767 842.876 590.308 838.38L442.926 569.534C438.557 561.569 433.046 553.322 430.674 544.507Z"/>
	<path fill="#CB9145" transform="scale(0.90998 0.90998)" d="M671.881 813.024C677.374 814.952 732.725 873.451 733.433 878.453L732.982 879.288L731.872 877.87C724.774 876.174 682.09 877.28 671.881 877.382L671.796 833.368C671.768 826.788 670.942 819.51 671.881 813.024Z"/>
	<path fill="#EABD73" transform="scale(0.90998 0.90998)" d="M610.844 877.382C627.519 864.668 654.599 829.775 671.881 813.024C670.942 819.51 671.768 826.788 671.796 833.368L671.881 877.382C664.193 878.244 656.022 877.532 648.265 877.451L610.844 877.382Z"/>
	<path fill="#27454D" transform="scale(0.90998 0.90998)" d="M610.844 877.382L648.265 877.451C656.022 877.532 664.193 878.244 671.881 877.382C671.883 884.706 670.954 938.585 671.881 940.843L671.001 940.717C659.752 929.293 615.292 885.454 610.844 877.382Z"/>
	<path fill="#0B232A" transform="scale(0.90998 0.90998)" d="M671.881 877.382C682.09 877.28 724.774 876.174 731.872 877.87L732.982 879.288C723.837 891.341 682.52 933.496 671.881 940.843C670.954 938.585 671.883 884.706 671.881 877.382Z"/>
	<path fill="#EABD73" transform="scale(0.90998 0.90998)" d="M370.735 1056.03C378.362 1045.19 405.444 1019.66 415.591 1010.99C415.964 1041.02 415.262 1071.04 415.591 1101.08C402.891 1086.35 385.097 1069.34 370.735 1056.03Z"/>
	<path fill="#CB9145" transform="scale(0.90998 0.90998)" d="M415.591 1010.99C426.494 1019.7 450.677 1045.51 459.636 1056.03C451.372 1066.47 425.285 1092.73 415.591 1101.08C415.262 1071.04 415.964 1041.02 415.591 1010.99Z"/>
	<path fill="#EABD73" transform="scale(0.90998 0.90998)" d="M929.079 1013.58C924.173 1021.92 927.961 1086.4 926.878 1101.08C920.956 1093.74 885.314 1059.88 884.516 1056.24C887.04 1049.51 922.579 1015.42 927.752 1012.34L929.079 1013.58Z"/>
	<path fill="#CB9145" transform="scale(0.90998 0.90998)" d="M926.878 1101.08C927.961 1086.4 924.173 1021.92 929.079 1013.58C943.009 1028.02 957.832 1042.21 970.962 1057.32C959.309 1067.92 938.462 1093.95 926.878 1101.08Z"/>
</svg>
